# xmcd CD database file
#
# Track frame offsets:
#	150
#	39936
#	77428
#	124002
#	187834
#	231562
#	273760
#
# Disc length: 4085 seconds
#
# Revision: 0
# Processed by: cddbd v1.5.2PL0 Copyright (c) Steve Scherf et al.
# Submitted via: CDex 1.51
#
DISCID=4c0ff307
DTITLE=ChuckOwen and the JazzSurge - Here We Are
DYEAR=1900
DGENRE=Jazz
TTITLE0=E.Ticket
TTITLE1=Glib
TTITLE2=MyFoolishHeart
TTITLE3=Duets
TTITLE4=OffFlow
TTITLE5=Struttin'
TTITLE6=Gate'sGate
EXTD=
EXTT0=
EXTT1=
EXTT2=
EXTT3=
EXTT4=
EXTT5=
EXTT6=
PLAYORDER=
